<mxfile host="65bd71144e">
    <diagram id="oePx_UZJ9o7nUFmFTYAE" name="Quản lý ngân hàng câu hỏi">
        <mxGraphModel dx="1527" dy="649" grid="1" gridSize="10" guides="1" tooltips="1" connect="1" arrows="1" fold="1" page="1" pageScale="1" pageWidth="827" pageHeight="1169" math="0" shadow="0">
            <root>
                <mxCell id="0"/>
                <mxCell id="1" parent="0"/>
                <mxCell id="2" value="" style="ellipse;html=1;shape=endState;fillColor=#000000;strokeColor=#ff0000;" parent="1" vertex="1">
                    <mxGeometry x="695" y="456.88" width="30" height="30" as="geometry"/>
                </mxCell>
                <mxCell id="3" value="" style="ellipse;html=1;shape=startState;fillColor=#000000;strokeColor=#ff0000;" parent="1" vertex="1">
                    <mxGeometry x="328.9" y="20" width="30" height="30" as="geometry"/>
                </mxCell>
                <mxCell id="4" value="" style="edgeStyle=orthogonalEdgeStyle;html=1;verticalAlign=bottom;endArrow=open;endSize=8;strokeColor=#ff0000;entryX=0.5;entryY=0;entryDx=0;entryDy=0;" parent="1" source="3" target="6" edge="1">
                    <mxGeometry relative="1" as="geometry">
                        <mxPoint x="93" y="260" as="targetPoint"/>
                    </mxGeometry>
                </mxCell>
                <mxCell id="5" style="edgeStyle=none;html=1;exitX=0.5;exitY=1;exitDx=0;exitDy=0;entryX=0.5;entryY=0;entryDx=0;entryDy=0;" parent="1" source="6" target="23" edge="1">
                    <mxGeometry relative="1" as="geometry"/>
                </mxCell>
                <mxCell id="6" value="Đăng nhập" style="rounded=1;whiteSpace=wrap;html=1;" parent="1" vertex="1">
                    <mxGeometry x="282.99" y="90" width="120" height="60" as="geometry"/>
                </mxCell>
                <mxCell id="7" value="" style="edgeStyle=none;html=1;" parent="1" source="8" target="49" edge="1">
                    <mxGeometry relative="1" as="geometry"/>
                </mxCell>
                <mxCell id="8" value="Tạo ngân hàng câu hỏi" style="rounded=1;whiteSpace=wrap;html=1;arcSize=22;" parent="1" vertex="1">
                    <mxGeometry x="64" y="387.5" width="120" height="62.5" as="geometry"/>
                </mxCell>
                <mxCell id="9" value="" style="edgeStyle=none;html=1;" parent="1" source="10" target="74" edge="1">
                    <mxGeometry relative="1" as="geometry"/>
                </mxCell>
                <mxCell id="10" value="Sửa ngân hàng câu hỏi" style="rounded=1;whiteSpace=wrap;html=1;" parent="1" vertex="1">
                    <mxGeometry x="285.1" y="350" width="120" height="62.5" as="geometry"/>
                </mxCell>
                <mxCell id="o5Tee6YTSWILkmSuLI-A-124" value="" style="edgeStyle=none;html=1;endArrow=classic;endFill=1;" parent="1" source="12" target="o5Tee6YTSWILkmSuLI-A-123" edge="1">
                    <mxGeometry relative="1" as="geometry"/>
                </mxCell>
                <mxCell id="12" value="Xóa ngân hàng câu hỏi" style="rounded=1;whiteSpace=wrap;html=1;" parent="1" vertex="1">
                    <mxGeometry x="504" y="365" width="120" height="62.5" as="geometry"/>
                </mxCell>
                <mxCell id="13" style="edgeStyle=none;html=1;exitX=0.502;exitY=-0.004;exitDx=0;exitDy=0;exitPerimeter=0;entryX=0.5;entryY=0;entryDx=0;entryDy=0;" parent="1" source="16" target="12" edge="1">
                    <mxGeometry relative="1" as="geometry">
                        <Array as="points">
                            <mxPoint x="560" y="304"/>
                        </Array>
                        <mxPoint x="560" y="360" as="targetPoint"/>
                    </mxGeometry>
                </mxCell>
                <mxCell id="14" style="edgeStyle=none;html=1;entryX=0.5;entryY=0;entryDx=0;entryDy=0;exitX=0.474;exitY=0.999;exitDx=0;exitDy=0;exitPerimeter=0;" parent="1" source="16" target="8" edge="1">
                    <mxGeometry relative="1" as="geometry">
                        <Array as="points">
                            <mxPoint x="124" y="300"/>
                        </Array>
                    </mxGeometry>
                </mxCell>
                <mxCell id="15" style="edgeStyle=none;rounded=1;html=1;entryX=0.5;entryY=0;entryDx=0;entryDy=0;endArrow=classic;endFill=1;" parent="1" source="16" target="10" edge="1">
                    <mxGeometry relative="1" as="geometry"/>
                </mxCell>
                <mxCell id="16" value="" style="html=1;points=[];perimeter=orthogonalPerimeter;rotation=90;" parent="1" vertex="1">
                    <mxGeometry x="335.8399999999999" y="257.33" width="14.31" height="80" as="geometry"/>
                </mxCell>
                <mxCell id="17" value="" style="edgeStyle=none;html=1;" parent="1" source="18" target="2" edge="1">
                    <mxGeometry relative="1" as="geometry"/>
                </mxCell>
                <mxCell id="18" value="Đăng xuất" style="rounded=1;whiteSpace=wrap;html=1;" parent="1" vertex="1">
                    <mxGeometry x="650" y="370" width="120" height="60" as="geometry"/>
                </mxCell>
                <mxCell id="21" value="" style="edgeStyle=none;html=1;exitX=0.508;exitY=1.005;exitDx=0;exitDy=0;exitPerimeter=0;" parent="1" source="23" target="16" edge="1">
                    <mxGeometry relative="1" as="geometry"/>
                </mxCell>
                <mxCell id="22" style="edgeStyle=none;html=1;endArrow=block;endFill=1;" parent="1" source="23" edge="1">
                    <mxGeometry relative="1" as="geometry"/>
                </mxCell>
                <mxCell id="23" value="Xem danh sách ngân hàng câu hỏi" style="rounded=1;whiteSpace=wrap;html=1;" parent="1" vertex="1">
                    <mxGeometry x="283" y="185" width="120" height="60" as="geometry"/>
                </mxCell>
                <mxCell id="48" value="" style="edgeStyle=none;html=1;" parent="1" source="49" target="51" edge="1">
                    <mxGeometry relative="1" as="geometry"/>
                </mxCell>
                <mxCell id="49" value="Đặt tên ngân hàng câu hỏi" style="whiteSpace=wrap;html=1;rounded=1;arcSize=22;" parent="1" vertex="1">
                    <mxGeometry x="64" y="486.88" width="120" height="60" as="geometry"/>
                </mxCell>
                <mxCell id="51" value="Mô tả ngân hàng câu hỏi" style="whiteSpace=wrap;html=1;rounded=1;arcSize=22;" parent="1" vertex="1">
                    <mxGeometry x="64" y="586.87" width="120" height="60" as="geometry"/>
                </mxCell>
                <mxCell id="62" value="" style="html=1;points=[];perimeter=orthogonalPerimeter;rotation=90;" parent="1" vertex="1">
                    <mxGeometry x="338.85" y="523.13" width="12.5" height="80" as="geometry"/>
                </mxCell>
                <mxCell id="64" value="Đổi tên ngân hàng câu hỏi" style="whiteSpace=wrap;html=1;rounded=1;arcSize=22;" parent="1" vertex="1">
                    <mxGeometry x="190" y="640" width="120" height="60" as="geometry"/>
                </mxCell>
                <mxCell id="66" value="Đổi mô tả ngân hàng câu hỏi" style="whiteSpace=wrap;html=1;rounded=1;arcSize=22;" parent="1" vertex="1">
                    <mxGeometry x="395.1" y="640" width="120" height="60" as="geometry"/>
                </mxCell>
                <mxCell id="HWJRek6ZZMWaeNSQXIsI-114" value="" style="edgeStyle=none;html=1;endArrow=classic;endFill=1;" parent="1" source="74" target="62" edge="1">
                    <mxGeometry relative="1" as="geometry"/>
                </mxCell>
                <mxCell id="74" value="Chọn ngân hàng câu hỏi để sửa" style="rounded=1;whiteSpace=wrap;html=1;" parent="1" vertex="1">
                    <mxGeometry x="285.1" y="460.63" width="120" height="62.5" as="geometry"/>
                </mxCell>
                <mxCell id="94" style="edgeStyle=none;html=1;entryX=0;entryY=0.5;entryDx=0;entryDy=0;endArrow=block;endFill=1;" parent="1" target="2" edge="1">
                    <mxGeometry relative="1" as="geometry"/>
                </mxCell>
                <mxCell id="o5Tee6YTSWILkmSuLI-A-113" value="Xác nhận" style="whiteSpace=wrap;html=1;rounded=1;arcSize=22;" parent="1" vertex="1">
                    <mxGeometry x="291.85000000000014" y="870" width="120" height="60" as="geometry"/>
                </mxCell>
                <mxCell id="o5Tee6YTSWILkmSuLI-A-115" value="" style="endArrow=classic;html=1;startArrow=none;exitX=0.5;exitY=1;exitDx=0;exitDy=0;endFill=1;entryX=0.847;entryY=0.987;entryDx=0;entryDy=0;entryPerimeter=0;" parent="1" source="51" target="o5Tee6YTSWILkmSuLI-A-116" edge="1">
                    <mxGeometry width="50" height="50" relative="1" as="geometry">
                        <mxPoint x="43.99999999999977" y="756.4999999999999" as="sourcePoint"/>
                        <mxPoint x="4" y="729.63" as="targetPoint"/>
                        <Array as="points">
                            <mxPoint x="124" y="784"/>
                        </Array>
                    </mxGeometry>
                </mxCell>
                <mxCell id="o5Tee6YTSWILkmSuLI-A-120" value="" style="edgeStyle=none;html=1;endArrow=classic;endFill=1;" parent="1" source="o5Tee6YTSWILkmSuLI-A-116" target="o5Tee6YTSWILkmSuLI-A-113" edge="1">
                    <mxGeometry relative="1" as="geometry"/>
                </mxCell>
                <mxCell id="o5Tee6YTSWILkmSuLI-A-116" value="" style="html=1;points=[];perimeter=orthogonalPerimeter;rotation=90;" parent="1" vertex="1">
                    <mxGeometry x="345.6" y="740" width="12.5" height="80" as="geometry"/>
                </mxCell>
                <mxCell id="o5Tee6YTSWILkmSuLI-A-117" value="" style="endArrow=classic;html=1;startArrow=none;exitX=0.5;exitY=1;exitDx=0;exitDy=0;endFill=1;entryX=0.059;entryY=0.509;entryDx=0;entryDy=0;entryPerimeter=0;" parent="1" source="64" target="o5Tee6YTSWILkmSuLI-A-116" edge="1">
                    <mxGeometry width="50" height="50" relative="1" as="geometry">
                        <mxPoint x="45.099999999999795" y="656.8699999999999" as="sourcePoint"/>
                        <mxPoint x="307.01999999999987" y="910" as="targetPoint"/>
                        <Array as="points"/>
                    </mxGeometry>
                </mxCell>
                <mxCell id="o5Tee6YTSWILkmSuLI-A-119" value="" style="endArrow=classic;html=1;startArrow=none;exitX=0.5;exitY=1;exitDx=0;exitDy=0;endFill=1;entryX=0.066;entryY=0.514;entryDx=0;entryDy=0;entryPerimeter=0;" parent="1" source="66" target="o5Tee6YTSWILkmSuLI-A-116" edge="1">
                    <mxGeometry width="50" height="50" relative="1" as="geometry">
                        <mxPoint x="275.0999999999998" y="673.1300000000001" as="sourcePoint"/>
                        <mxPoint x="361.12999999999977" y="784.4874999999997" as="targetPoint"/>
                        <Array as="points"/>
                    </mxGeometry>
                </mxCell>
                <mxCell id="o5Tee6YTSWILkmSuLI-A-121" value="" style="endArrow=classic;html=1;exitX=0.926;exitY=0.992;exitDx=0;exitDy=0;exitPerimeter=0;entryX=0.5;entryY=0;entryDx=0;entryDy=0;" parent="1" source="62" target="64" edge="1">
                    <mxGeometry width="50" height="50" relative="1" as="geometry">
                        <mxPoint x="145.10000000000002" y="580" as="sourcePoint"/>
                        <mxPoint x="195.10000000000002" y="530" as="targetPoint"/>
                    </mxGeometry>
                </mxCell>
                <mxCell id="o5Tee6YTSWILkmSuLI-A-122" value="" style="endArrow=classic;html=1;startArrow=none;exitX=0.999;exitY=0.016;exitDx=0;exitDy=0;endFill=1;entryX=0.5;entryY=0;entryDx=0;entryDy=0;exitPerimeter=0;" parent="1" source="62" target="66" edge="1">
                    <mxGeometry width="50" height="50" relative="1" as="geometry">
                        <mxPoint x="285.0999999999998" y="683.1300000000001" as="sourcePoint"/>
                        <mxPoint x="371.12999999999977" y="794.4874999999997" as="targetPoint"/>
                        <Array as="points"/>
                    </mxGeometry>
                </mxCell>
                <mxCell id="o5Tee6YTSWILkmSuLI-A-123" value="Chọn ngân hàng câu hỏi để xóa" style="rounded=1;whiteSpace=wrap;html=1;" parent="1" vertex="1">
                    <mxGeometry x="504" y="460.63" width="120" height="62.5" as="geometry"/>
                </mxCell>
                <mxCell id="o5Tee6YTSWILkmSuLI-A-125" value="" style="endArrow=classic;html=1;startArrow=none;exitX=0.5;exitY=1;exitDx=0;exitDy=0;endFill=1;entryX=0.68;entryY=0.006;entryDx=0;entryDy=0;entryPerimeter=0;" parent="1" source="o5Tee6YTSWILkmSuLI-A-123" target="o5Tee6YTSWILkmSuLI-A-116" edge="1">
                    <mxGeometry width="50" height="50" relative="1" as="geometry">
                        <mxPoint x="63.99999999999977" y="656.8699999999999" as="sourcePoint"/>
                        <mxPoint x="320.75" y="910" as="targetPoint"/>
                        <Array as="points">
                            <mxPoint x="564" y="780"/>
                        </Array>
                    </mxGeometry>
                </mxCell>
                <mxCell id="o5Tee6YTSWILkmSuLI-A-127" value="" style="endArrow=none;html=1;startArrow=none;exitX=0.5;exitY=1;exitDx=0;exitDy=0;endFill=0;" parent="1" source="o5Tee6YTSWILkmSuLI-A-113" edge="1">
                    <mxGeometry width="50" height="50" relative="1" as="geometry">
                        <mxPoint x="257.25" y="670.0000000000001" as="sourcePoint"/>
                        <mxPoint x="84" y="980" as="targetPoint"/>
                        <Array as="points">
                            <mxPoint x="352" y="980"/>
                        </Array>
                    </mxGeometry>
                </mxCell>
                <mxCell id="o5Tee6YTSWILkmSuLI-A-128" value="" style="endArrow=none;html=1;startArrow=none;endFill=0;" parent="1" edge="1">
                    <mxGeometry width="50" height="50" relative="1" as="geometry">
                        <mxPoint x="84" y="980" as="sourcePoint"/>
                        <mxPoint x="14" y="250" as="targetPoint"/>
                        <Array as="points">
                            <mxPoint x="14" y="980"/>
                        </Array>
                    </mxGeometry>
                </mxCell>
                <mxCell id="o5Tee6YTSWILkmSuLI-A-129" value="" style="endArrow=classic;html=1;entryX=0;entryY=0.5;entryDx=0;entryDy=0;" parent="1" target="23" edge="1">
                    <mxGeometry width="50" height="50" relative="1" as="geometry">
                        <mxPoint x="14" y="250" as="sourcePoint"/>
                        <mxPoint x="104" y="150" as="targetPoint"/>
                        <Array as="points">
                            <mxPoint x="14" y="215"/>
                        </Array>
                    </mxGeometry>
                </mxCell>
                <mxCell id="o5Tee6YTSWILkmSuLI-A-130" style="edgeStyle=none;html=1;entryX=0.5;entryY=0;entryDx=0;entryDy=0;exitX=0.035;exitY=0.006;exitDx=0;exitDy=0;exitPerimeter=0;" parent="1" source="16" target="18" edge="1">
                    <mxGeometry relative="1" as="geometry">
                        <Array as="points">
                            <mxPoint x="710" y="297"/>
                        </Array>
                        <mxPoint x="384.00499999999965" y="304.1129400000002" as="sourcePoint"/>
                        <mxPoint x="566.29" y="365" as="targetPoint"/>
                    </mxGeometry>
                </mxCell>
            </root>
        </mxGraphModel>
    </diagram>
    <diagram name="Quản lý câu hỏi" id="XYFWk21HtQljvIj2rEX-">
        <mxGraphModel dx="1200" dy="510" grid="1" gridSize="10" guides="1" tooltips="1" connect="1" arrows="1" fold="1" page="1" pageScale="1" pageWidth="827" pageHeight="1169" math="0" shadow="0">
            <root>
                <mxCell id="WIa-JmH-mWgJoxxkNxEZ-0"/>
                <mxCell id="WIa-JmH-mWgJoxxkNxEZ-1" parent="WIa-JmH-mWgJoxxkNxEZ-0"/>
                <mxCell id="Zko_HXrsbqg90wfh10io-0" value="" style="ellipse;html=1;shape=endState;fillColor=#000000;strokeColor=#ff0000;" parent="WIa-JmH-mWgJoxxkNxEZ-1" vertex="1">
                    <mxGeometry x="695" y="456.88" width="30" height="30" as="geometry"/>
                </mxCell>
                <mxCell id="Zko_HXrsbqg90wfh10io-1" value="" style="ellipse;html=1;shape=startState;fillColor=#000000;strokeColor=#ff0000;" parent="WIa-JmH-mWgJoxxkNxEZ-1" vertex="1">
                    <mxGeometry x="328.9" y="20" width="30" height="30" as="geometry"/>
                </mxCell>
                <mxCell id="Zko_HXrsbqg90wfh10io-2" value="" style="edgeStyle=orthogonalEdgeStyle;html=1;verticalAlign=bottom;endArrow=open;endSize=8;strokeColor=#ff0000;entryX=0.5;entryY=0;entryDx=0;entryDy=0;" parent="WIa-JmH-mWgJoxxkNxEZ-1" source="Zko_HXrsbqg90wfh10io-1" target="Zko_HXrsbqg90wfh10io-4" edge="1">
                    <mxGeometry relative="1" as="geometry">
                        <mxPoint x="93" y="260" as="targetPoint"/>
                    </mxGeometry>
                </mxCell>
                <mxCell id="Zko_HXrsbqg90wfh10io-3" style="edgeStyle=none;html=1;exitX=0.5;exitY=1;exitDx=0;exitDy=0;entryX=0.5;entryY=0;entryDx=0;entryDy=0;" parent="WIa-JmH-mWgJoxxkNxEZ-1" source="Zko_HXrsbqg90wfh10io-4" target="Zko_HXrsbqg90wfh10io-18" edge="1">
                    <mxGeometry relative="1" as="geometry"/>
                </mxCell>
                <mxCell id="Zko_HXrsbqg90wfh10io-4" value="Đăng nhập" style="rounded=1;whiteSpace=wrap;html=1;" parent="WIa-JmH-mWgJoxxkNxEZ-1" vertex="1">
                    <mxGeometry x="282.99" y="90" width="120" height="60" as="geometry"/>
                </mxCell>
                <mxCell id="Zko_HXrsbqg90wfh10io-5" value="" style="edgeStyle=none;html=1;" parent="WIa-JmH-mWgJoxxkNxEZ-1" source="Zko_HXrsbqg90wfh10io-6" target="Zko_HXrsbqg90wfh10io-20" edge="1">
                    <mxGeometry relative="1" as="geometry"/>
                </mxCell>
                <mxCell id="Zko_HXrsbqg90wfh10io-6" value="Tạo câu hỏi và viết nội dung cho câu hỏi" style="rounded=1;whiteSpace=wrap;html=1;arcSize=22;" parent="WIa-JmH-mWgJoxxkNxEZ-1" vertex="1">
                    <mxGeometry x="64" y="387.5" width="120" height="62.5" as="geometry"/>
                </mxCell>
                <mxCell id="Zko_HXrsbqg90wfh10io-7" value="" style="edgeStyle=none;html=1;" parent="WIa-JmH-mWgJoxxkNxEZ-1" source="Zko_HXrsbqg90wfh10io-8" target="Zko_HXrsbqg90wfh10io-26" edge="1">
                    <mxGeometry relative="1" as="geometry"/>
                </mxCell>
                <mxCell id="Zko_HXrsbqg90wfh10io-8" value="Sửa câu hỏi" style="rounded=1;whiteSpace=wrap;html=1;" parent="WIa-JmH-mWgJoxxkNxEZ-1" vertex="1">
                    <mxGeometry x="285.1" y="350" width="120" height="62.5" as="geometry"/>
                </mxCell>
                <mxCell id="Zko_HXrsbqg90wfh10io-9" value="" style="edgeStyle=none;html=1;endArrow=classic;endFill=1;" parent="WIa-JmH-mWgJoxxkNxEZ-1" source="Zko_HXrsbqg90wfh10io-10" target="Zko_HXrsbqg90wfh10io-35" edge="1">
                    <mxGeometry relative="1" as="geometry"/>
                </mxCell>
                <mxCell id="Zko_HXrsbqg90wfh10io-10" value="Xóa câu hỏi" style="rounded=1;whiteSpace=wrap;html=1;" parent="WIa-JmH-mWgJoxxkNxEZ-1" vertex="1">
                    <mxGeometry x="504" y="365" width="120" height="62.5" as="geometry"/>
                </mxCell>
                <mxCell id="Zko_HXrsbqg90wfh10io-11" style="edgeStyle=none;html=1;exitX=0.502;exitY=-0.004;exitDx=0;exitDy=0;exitPerimeter=0;entryX=0.5;entryY=0;entryDx=0;entryDy=0;" parent="WIa-JmH-mWgJoxxkNxEZ-1" source="Zko_HXrsbqg90wfh10io-14" target="Zko_HXrsbqg90wfh10io-10" edge="1">
                    <mxGeometry relative="1" as="geometry">
                        <Array as="points">
                            <mxPoint x="560" y="304"/>
                        </Array>
                        <mxPoint x="560" y="360" as="targetPoint"/>
                    </mxGeometry>
                </mxCell>
                <mxCell id="Zko_HXrsbqg90wfh10io-12" style="edgeStyle=none;html=1;entryX=0.5;entryY=0;entryDx=0;entryDy=0;exitX=0.474;exitY=0.999;exitDx=0;exitDy=0;exitPerimeter=0;" parent="WIa-JmH-mWgJoxxkNxEZ-1" source="Zko_HXrsbqg90wfh10io-14" target="Zko_HXrsbqg90wfh10io-6" edge="1">
                    <mxGeometry relative="1" as="geometry">
                        <Array as="points">
                            <mxPoint x="124" y="300"/>
                        </Array>
                    </mxGeometry>
                </mxCell>
                <mxCell id="Zko_HXrsbqg90wfh10io-13" style="edgeStyle=none;rounded=1;html=1;entryX=0.5;entryY=0;entryDx=0;entryDy=0;endArrow=classic;endFill=1;" parent="WIa-JmH-mWgJoxxkNxEZ-1" source="Zko_HXrsbqg90wfh10io-14" target="Zko_HXrsbqg90wfh10io-8" edge="1">
                    <mxGeometry relative="1" as="geometry"/>
                </mxCell>
                <mxCell id="Zko_HXrsbqg90wfh10io-14" value="" style="html=1;points=[];perimeter=orthogonalPerimeter;rotation=90;" parent="WIa-JmH-mWgJoxxkNxEZ-1" vertex="1">
                    <mxGeometry x="335.8399999999999" y="257.33" width="14.31" height="80" as="geometry"/>
                </mxCell>
                <mxCell id="Zko_HXrsbqg90wfh10io-15" value="" style="edgeStyle=none;html=1;" parent="WIa-JmH-mWgJoxxkNxEZ-1" source="Zko_HXrsbqg90wfh10io-16" target="Zko_HXrsbqg90wfh10io-0" edge="1">
                    <mxGeometry relative="1" as="geometry"/>
                </mxCell>
                <mxCell id="Zko_HXrsbqg90wfh10io-16" value="Đăng xuất" style="rounded=1;whiteSpace=wrap;html=1;" parent="WIa-JmH-mWgJoxxkNxEZ-1" vertex="1">
                    <mxGeometry x="650" y="370" width="120" height="60" as="geometry"/>
                </mxCell>
                <mxCell id="Zko_HXrsbqg90wfh10io-17" value="" style="edgeStyle=none;html=1;exitX=0.508;exitY=1.005;exitDx=0;exitDy=0;exitPerimeter=0;" parent="WIa-JmH-mWgJoxxkNxEZ-1" source="Zko_HXrsbqg90wfh10io-18" target="Zko_HXrsbqg90wfh10io-14" edge="1">
                    <mxGeometry relative="1" as="geometry"/>
                </mxCell>
                <mxCell id="Zko_HXrsbqg90wfh10io-18" value="Xem danh sách câu hỏi" style="rounded=1;whiteSpace=wrap;html=1;" parent="WIa-JmH-mWgJoxxkNxEZ-1" vertex="1">
                    <mxGeometry x="283" y="185" width="120" height="60" as="geometry"/>
                </mxCell>
                <mxCell id="Zko_HXrsbqg90wfh10io-19" value="" style="edgeStyle=none;html=1;" parent="WIa-JmH-mWgJoxxkNxEZ-1" source="Zko_HXrsbqg90wfh10io-20" target="Zko_HXrsbqg90wfh10io-21" edge="1">
                    <mxGeometry relative="1" as="geometry"/>
                </mxCell>
                <mxCell id="Zko_HXrsbqg90wfh10io-20" value="Đặt tên cho câu hỏi" style="whiteSpace=wrap;html=1;rounded=1;arcSize=22;" parent="WIa-JmH-mWgJoxxkNxEZ-1" vertex="1">
                    <mxGeometry x="64" y="486.88" width="120" height="60" as="geometry"/>
                </mxCell>
                <mxCell id="Zko_HXrsbqg90wfh10io-21" value="Mô tả các đáp án chọn" style="whiteSpace=wrap;html=1;rounded=1;arcSize=22;" parent="WIa-JmH-mWgJoxxkNxEZ-1" vertex="1">
                    <mxGeometry x="64" y="586.87" width="120" height="60" as="geometry"/>
                </mxCell>
                <mxCell id="Zko_HXrsbqg90wfh10io-22" value="" style="html=1;points=[];perimeter=orthogonalPerimeter;rotation=90;" parent="WIa-JmH-mWgJoxxkNxEZ-1" vertex="1">
                    <mxGeometry x="338.85" y="523.13" width="12.5" height="80" as="geometry"/>
                </mxCell>
                <mxCell id="Zko_HXrsbqg90wfh10io-23" value="Đổi nội dung câu hỏi" style="whiteSpace=wrap;html=1;rounded=1;arcSize=22;" parent="WIa-JmH-mWgJoxxkNxEZ-1" vertex="1">
                    <mxGeometry x="310" y="640" width="120" height="60" as="geometry"/>
                </mxCell>
                <mxCell id="Zko_HXrsbqg90wfh10io-24" value="Đổi các đáp án chọn" style="whiteSpace=wrap;html=1;rounded=1;arcSize=22;" parent="WIa-JmH-mWgJoxxkNxEZ-1" vertex="1">
                    <mxGeometry x="440" y="640" width="120" height="60" as="geometry"/>
                </mxCell>
                <mxCell id="Zko_HXrsbqg90wfh10io-25" value="" style="edgeStyle=none;html=1;endArrow=classic;endFill=1;" parent="WIa-JmH-mWgJoxxkNxEZ-1" source="Zko_HXrsbqg90wfh10io-26" target="Zko_HXrsbqg90wfh10io-22" edge="1">
                    <mxGeometry relative="1" as="geometry"/>
                </mxCell>
                <mxCell id="Zko_HXrsbqg90wfh10io-26" value="Chọn câu hỏi để sửa" style="rounded=1;whiteSpace=wrap;html=1;" parent="WIa-JmH-mWgJoxxkNxEZ-1" vertex="1">
                    <mxGeometry x="285.1" y="460.63" width="120" height="62.5" as="geometry"/>
                </mxCell>
                <mxCell id="Zko_HXrsbqg90wfh10io-27" value="Xác nhận" style="whiteSpace=wrap;html=1;rounded=1;arcSize=22;" parent="WIa-JmH-mWgJoxxkNxEZ-1" vertex="1">
                    <mxGeometry x="291.85000000000014" y="870" width="120" height="60" as="geometry"/>
                </mxCell>
                <mxCell id="Zko_HXrsbqg90wfh10io-28" value="" style="endArrow=classic;html=1;startArrow=none;exitX=0.5;exitY=1;exitDx=0;exitDy=0;endFill=1;entryX=0.847;entryY=0.987;entryDx=0;entryDy=0;entryPerimeter=0;" parent="WIa-JmH-mWgJoxxkNxEZ-1" source="Zko_HXrsbqg90wfh10io-21" target="Zko_HXrsbqg90wfh10io-30" edge="1">
                    <mxGeometry width="50" height="50" relative="1" as="geometry">
                        <mxPoint x="43.99999999999977" y="756.4999999999999" as="sourcePoint"/>
                        <mxPoint x="4" y="729.63" as="targetPoint"/>
                        <Array as="points">
                            <mxPoint x="124" y="784"/>
                        </Array>
                    </mxGeometry>
                </mxCell>
                <mxCell id="Zko_HXrsbqg90wfh10io-29" value="" style="edgeStyle=none;html=1;endArrow=classic;endFill=1;" parent="WIa-JmH-mWgJoxxkNxEZ-1" source="Zko_HXrsbqg90wfh10io-30" target="Zko_HXrsbqg90wfh10io-27" edge="1">
                    <mxGeometry relative="1" as="geometry"/>
                </mxCell>
                <mxCell id="Zko_HXrsbqg90wfh10io-30" value="" style="html=1;points=[];perimeter=orthogonalPerimeter;rotation=90;" parent="WIa-JmH-mWgJoxxkNxEZ-1" vertex="1">
                    <mxGeometry x="345.6" y="740" width="12.5" height="80" as="geometry"/>
                </mxCell>
                <mxCell id="Zko_HXrsbqg90wfh10io-31" value="" style="endArrow=classic;html=1;startArrow=none;exitX=0.5;exitY=1;exitDx=0;exitDy=0;endFill=1;entryX=0.059;entryY=0.509;entryDx=0;entryDy=0;entryPerimeter=0;" parent="WIa-JmH-mWgJoxxkNxEZ-1" source="Zko_HXrsbqg90wfh10io-23" target="Zko_HXrsbqg90wfh10io-30" edge="1">
                    <mxGeometry width="50" height="50" relative="1" as="geometry">
                        <mxPoint x="45.099999999999795" y="656.8699999999999" as="sourcePoint"/>
                        <mxPoint x="307.01999999999987" y="910" as="targetPoint"/>
                        <Array as="points"/>
                    </mxGeometry>
                </mxCell>
                <mxCell id="Zko_HXrsbqg90wfh10io-32" value="" style="endArrow=classic;html=1;startArrow=none;exitX=0.5;exitY=1;exitDx=0;exitDy=0;endFill=1;entryX=0.066;entryY=0.514;entryDx=0;entryDy=0;entryPerimeter=0;" parent="WIa-JmH-mWgJoxxkNxEZ-1" source="Zko_HXrsbqg90wfh10io-24" target="Zko_HXrsbqg90wfh10io-30" edge="1">
                    <mxGeometry width="50" height="50" relative="1" as="geometry">
                        <mxPoint x="275.0999999999998" y="673.1300000000001" as="sourcePoint"/>
                        <mxPoint x="361.12999999999977" y="784.4874999999997" as="targetPoint"/>
                        <Array as="points"/>
                    </mxGeometry>
                </mxCell>
                <mxCell id="Zko_HXrsbqg90wfh10io-33" value="" style="endArrow=classic;html=1;exitX=1.03;exitY=0.498;exitDx=0;exitDy=0;exitPerimeter=0;entryX=0.5;entryY=0;entryDx=0;entryDy=0;" parent="WIa-JmH-mWgJoxxkNxEZ-1" source="Zko_HXrsbqg90wfh10io-22" target="Zko_HXrsbqg90wfh10io-23" edge="1">
                    <mxGeometry width="50" height="50" relative="1" as="geometry">
                        <mxPoint x="145.10000000000002" y="580" as="sourcePoint"/>
                        <mxPoint x="195.10000000000002" y="530" as="targetPoint"/>
                    </mxGeometry>
                </mxCell>
                <mxCell id="Zko_HXrsbqg90wfh10io-34" value="" style="endArrow=classic;html=1;startArrow=none;exitX=0.999;exitY=0.016;exitDx=0;exitDy=0;endFill=1;entryX=0.5;entryY=0;entryDx=0;entryDy=0;exitPerimeter=0;" parent="WIa-JmH-mWgJoxxkNxEZ-1" source="Zko_HXrsbqg90wfh10io-22" target="Zko_HXrsbqg90wfh10io-24" edge="1">
                    <mxGeometry width="50" height="50" relative="1" as="geometry">
                        <mxPoint x="285.0999999999998" y="683.1300000000001" as="sourcePoint"/>
                        <mxPoint x="371.12999999999977" y="794.4874999999997" as="targetPoint"/>
                        <Array as="points"/>
                    </mxGeometry>
                </mxCell>
                <mxCell id="Zko_HXrsbqg90wfh10io-35" value="Chọn câu hỏi để xóa" style="rounded=1;whiteSpace=wrap;html=1;" parent="WIa-JmH-mWgJoxxkNxEZ-1" vertex="1">
                    <mxGeometry x="504" y="460.63" width="120" height="62.5" as="geometry"/>
                </mxCell>
                <mxCell id="Zko_HXrsbqg90wfh10io-36" value="" style="endArrow=classic;html=1;startArrow=none;exitX=0.5;exitY=1;exitDx=0;exitDy=0;endFill=1;entryX=0.68;entryY=0.006;entryDx=0;entryDy=0;entryPerimeter=0;" parent="WIa-JmH-mWgJoxxkNxEZ-1" source="Zko_HXrsbqg90wfh10io-35" target="Zko_HXrsbqg90wfh10io-30" edge="1">
                    <mxGeometry width="50" height="50" relative="1" as="geometry">
                        <mxPoint x="63.99999999999977" y="656.8699999999999" as="sourcePoint"/>
                        <mxPoint x="320.75" y="910" as="targetPoint"/>
                        <Array as="points">
                            <mxPoint x="564" y="780"/>
                        </Array>
                    </mxGeometry>
                </mxCell>
                <mxCell id="Zko_HXrsbqg90wfh10io-37" value="" style="endArrow=none;html=1;startArrow=none;exitX=0.5;exitY=1;exitDx=0;exitDy=0;endFill=0;" parent="WIa-JmH-mWgJoxxkNxEZ-1" source="Zko_HXrsbqg90wfh10io-27" edge="1">
                    <mxGeometry width="50" height="50" relative="1" as="geometry">
                        <mxPoint x="257.25" y="670.0000000000001" as="sourcePoint"/>
                        <mxPoint x="84" y="980" as="targetPoint"/>
                        <Array as="points">
                            <mxPoint x="352" y="980"/>
                        </Array>
                    </mxGeometry>
                </mxCell>
                <mxCell id="Zko_HXrsbqg90wfh10io-38" value="" style="endArrow=none;html=1;startArrow=none;endFill=0;" parent="WIa-JmH-mWgJoxxkNxEZ-1" edge="1">
                    <mxGeometry width="50" height="50" relative="1" as="geometry">
                        <mxPoint x="84" y="980" as="sourcePoint"/>
                        <mxPoint x="14" y="250" as="targetPoint"/>
                        <Array as="points">
                            <mxPoint x="14" y="980"/>
                        </Array>
                    </mxGeometry>
                </mxCell>
                <mxCell id="Zko_HXrsbqg90wfh10io-39" value="" style="endArrow=classic;html=1;entryX=0;entryY=0.5;entryDx=0;entryDy=0;" parent="WIa-JmH-mWgJoxxkNxEZ-1" target="Zko_HXrsbqg90wfh10io-18" edge="1">
                    <mxGeometry width="50" height="50" relative="1" as="geometry">
                        <mxPoint x="14" y="250" as="sourcePoint"/>
                        <mxPoint x="104" y="150" as="targetPoint"/>
                        <Array as="points">
                            <mxPoint x="14" y="215"/>
                        </Array>
                    </mxGeometry>
                </mxCell>
                <mxCell id="Zko_HXrsbqg90wfh10io-40" style="edgeStyle=none;html=1;entryX=0.5;entryY=0;entryDx=0;entryDy=0;exitX=0.035;exitY=0.006;exitDx=0;exitDy=0;exitPerimeter=0;" parent="WIa-JmH-mWgJoxxkNxEZ-1" source="Zko_HXrsbqg90wfh10io-14" target="Zko_HXrsbqg90wfh10io-16" edge="1">
                    <mxGeometry relative="1" as="geometry">
                        <Array as="points">
                            <mxPoint x="710" y="297"/>
                        </Array>
                        <mxPoint x="384.00499999999965" y="304.1129400000002" as="sourcePoint"/>
                        <mxPoint x="566.29" y="365" as="targetPoint"/>
                    </mxGeometry>
                </mxCell>
                <mxCell id="Zko_HXrsbqg90wfh10io-41" value="Đổi tên câu hỏi" style="whiteSpace=wrap;html=1;rounded=1;arcSize=22;" parent="WIa-JmH-mWgJoxxkNxEZ-1" vertex="1">
                    <mxGeometry x="180" y="640" width="120" height="60" as="geometry"/>
                </mxCell>
                <mxCell id="Zko_HXrsbqg90wfh10io-42" value="" style="endArrow=classic;html=1;exitX=1.075;exitY=0.989;exitDx=0;exitDy=0;exitPerimeter=0;entryX=0.5;entryY=0;entryDx=0;entryDy=0;" parent="WIa-JmH-mWgJoxxkNxEZ-1" source="Zko_HXrsbqg90wfh10io-22" target="Zko_HXrsbqg90wfh10io-41" edge="1">
                    <mxGeometry width="50" height="50" relative="1" as="geometry">
                        <mxPoint x="355.26" y="579.755" as="sourcePoint"/>
                        <mxPoint x="380" y="650" as="targetPoint"/>
                    </mxGeometry>
                </mxCell>
                <mxCell id="Zko_HXrsbqg90wfh10io-43" value="" style="endArrow=classic;html=1;startArrow=none;exitX=0.5;exitY=1;exitDx=0;exitDy=0;endFill=1;entryX=0.08;entryY=0.509;entryDx=0;entryDy=0;entryPerimeter=0;" parent="WIa-JmH-mWgJoxxkNxEZ-1" source="Zko_HXrsbqg90wfh10io-41" target="Zko_HXrsbqg90wfh10io-30" edge="1">
                    <mxGeometry width="50" height="50" relative="1" as="geometry">
                        <mxPoint x="380" y="710" as="sourcePoint"/>
                        <mxPoint x="350" y="770" as="targetPoint"/>
                        <Array as="points"/>
                    </mxGeometry>
                </mxCell>
            </root>
        </mxGraphModel>
    </diagram>
    <diagram name="Quản lý đề thi" id="a2SFNOKYA4mPSVjdgktA">
        <mxGraphModel dx="1216" dy="649" grid="1" gridSize="10" guides="1" tooltips="1" connect="1" arrows="1" fold="1" page="1" pageScale="1" pageWidth="827" pageHeight="1169" math="0" shadow="0">
            <root>
                <mxCell id="gyXgDf-kMecvD-xgvL6y-0"/>
                <mxCell id="gyXgDf-kMecvD-xgvL6y-1" parent="gyXgDf-kMecvD-xgvL6y-0"/>
                <mxCell id="fXizozWoqreXSzZDmgjI-0" value="" style="ellipse;html=1;shape=endState;fillColor=#000000;strokeColor=#ff0000;" parent="gyXgDf-kMecvD-xgvL6y-1" vertex="1">
                    <mxGeometry x="695" y="456.88" width="30" height="30" as="geometry"/>
                </mxCell>
                <mxCell id="fXizozWoqreXSzZDmgjI-1" value="" style="ellipse;html=1;shape=startState;fillColor=#000000;strokeColor=#ff0000;" parent="gyXgDf-kMecvD-xgvL6y-1" vertex="1">
                    <mxGeometry x="328.9" y="20" width="30" height="30" as="geometry"/>
                </mxCell>
                <mxCell id="fXizozWoqreXSzZDmgjI-2" value="" style="edgeStyle=orthogonalEdgeStyle;html=1;verticalAlign=bottom;endArrow=open;endSize=8;strokeColor=#ff0000;entryX=0.5;entryY=0;entryDx=0;entryDy=0;" parent="gyXgDf-kMecvD-xgvL6y-1" source="fXizozWoqreXSzZDmgjI-1" target="fXizozWoqreXSzZDmgjI-4" edge="1">
                    <mxGeometry relative="1" as="geometry">
                        <mxPoint x="93" y="260" as="targetPoint"/>
                    </mxGeometry>
                </mxCell>
                <mxCell id="fXizozWoqreXSzZDmgjI-3" style="edgeStyle=none;html=1;exitX=0.5;exitY=1;exitDx=0;exitDy=0;entryX=0.5;entryY=0;entryDx=0;entryDy=0;" parent="gyXgDf-kMecvD-xgvL6y-1" source="fXizozWoqreXSzZDmgjI-4" target="fXizozWoqreXSzZDmgjI-18" edge="1">
                    <mxGeometry relative="1" as="geometry"/>
                </mxCell>
                <mxCell id="fXizozWoqreXSzZDmgjI-4" value="Đăng nhập" style="rounded=1;whiteSpace=wrap;html=1;" parent="gyXgDf-kMecvD-xgvL6y-1" vertex="1">
                    <mxGeometry x="282.99" y="90" width="120" height="60" as="geometry"/>
                </mxCell>
                <mxCell id="fXizozWoqreXSzZDmgjI-5" value="" style="edgeStyle=none;html=1;" parent="gyXgDf-kMecvD-xgvL6y-1" source="fXizozWoqreXSzZDmgjI-6" target="fXizozWoqreXSzZDmgjI-20" edge="1">
                    <mxGeometry relative="1" as="geometry"/>
                </mxCell>
                <mxCell id="fXizozWoqreXSzZDmgjI-6" value="Tạo đề thi" style="rounded=1;whiteSpace=wrap;html=1;arcSize=22;" parent="gyXgDf-kMecvD-xgvL6y-1" vertex="1">
                    <mxGeometry x="64" y="387.5" width="120" height="62.5" as="geometry"/>
                </mxCell>
                <mxCell id="fXizozWoqreXSzZDmgjI-7" value="" style="edgeStyle=none;html=1;" parent="gyXgDf-kMecvD-xgvL6y-1" source="fXizozWoqreXSzZDmgjI-8" target="fXizozWoqreXSzZDmgjI-26" edge="1">
                    <mxGeometry relative="1" as="geometry"/>
                </mxCell>
                <mxCell id="fXizozWoqreXSzZDmgjI-8" value="Sửa câu hỏi" style="rounded=1;whiteSpace=wrap;html=1;" parent="gyXgDf-kMecvD-xgvL6y-1" vertex="1">
                    <mxGeometry x="285.1" y="350" width="120" height="62.5" as="geometry"/>
                </mxCell>
                <mxCell id="fXizozWoqreXSzZDmgjI-9" value="" style="edgeStyle=none;html=1;endArrow=classic;endFill=1;" parent="gyXgDf-kMecvD-xgvL6y-1" source="fXizozWoqreXSzZDmgjI-10" target="fXizozWoqreXSzZDmgjI-35" edge="1">
                    <mxGeometry relative="1" as="geometry"/>
                </mxCell>
                <mxCell id="fXizozWoqreXSzZDmgjI-10" value="Xóa câu hỏi" style="rounded=1;whiteSpace=wrap;html=1;" parent="gyXgDf-kMecvD-xgvL6y-1" vertex="1">
                    <mxGeometry x="504" y="365" width="120" height="62.5" as="geometry"/>
                </mxCell>
                <mxCell id="fXizozWoqreXSzZDmgjI-11" style="edgeStyle=none;html=1;exitX=0.502;exitY=-0.004;exitDx=0;exitDy=0;exitPerimeter=0;entryX=0.5;entryY=0;entryDx=0;entryDy=0;" parent="gyXgDf-kMecvD-xgvL6y-1" source="fXizozWoqreXSzZDmgjI-14" target="fXizozWoqreXSzZDmgjI-10" edge="1">
                    <mxGeometry relative="1" as="geometry">
                        <Array as="points">
                            <mxPoint x="560" y="304"/>
                        </Array>
                        <mxPoint x="560" y="360" as="targetPoint"/>
                    </mxGeometry>
                </mxCell>
                <mxCell id="fXizozWoqreXSzZDmgjI-12" style="edgeStyle=none;html=1;entryX=0.5;entryY=0;entryDx=0;entryDy=0;exitX=0.474;exitY=0.999;exitDx=0;exitDy=0;exitPerimeter=0;" parent="gyXgDf-kMecvD-xgvL6y-1" source="fXizozWoqreXSzZDmgjI-14" target="fXizozWoqreXSzZDmgjI-6" edge="1">
                    <mxGeometry relative="1" as="geometry">
                        <Array as="points">
                            <mxPoint x="124" y="300"/>
                        </Array>
                    </mxGeometry>
                </mxCell>
                <mxCell id="fXizozWoqreXSzZDmgjI-13" style="edgeStyle=none;rounded=1;html=1;entryX=0.5;entryY=0;entryDx=0;entryDy=0;endArrow=classic;endFill=1;" parent="gyXgDf-kMecvD-xgvL6y-1" source="fXizozWoqreXSzZDmgjI-14" target="fXizozWoqreXSzZDmgjI-8" edge="1">
                    <mxGeometry relative="1" as="geometry"/>
                </mxCell>
                <mxCell id="fXizozWoqreXSzZDmgjI-14" value="" style="html=1;points=[];perimeter=orthogonalPerimeter;rotation=90;" parent="gyXgDf-kMecvD-xgvL6y-1" vertex="1">
                    <mxGeometry x="335.8399999999999" y="257.33" width="14.31" height="80" as="geometry"/>
                </mxCell>
                <mxCell id="fXizozWoqreXSzZDmgjI-15" value="" style="edgeStyle=none;html=1;" parent="gyXgDf-kMecvD-xgvL6y-1" source="fXizozWoqreXSzZDmgjI-16" target="fXizozWoqreXSzZDmgjI-0" edge="1">
                    <mxGeometry relative="1" as="geometry"/>
                </mxCell>
                <mxCell id="fXizozWoqreXSzZDmgjI-16" value="Đăng xuất" style="rounded=1;whiteSpace=wrap;html=1;" parent="gyXgDf-kMecvD-xgvL6y-1" vertex="1">
                    <mxGeometry x="650" y="370" width="120" height="60" as="geometry"/>
                </mxCell>
                <mxCell id="fXizozWoqreXSzZDmgjI-17" value="" style="edgeStyle=none;html=1;exitX=0.508;exitY=1.005;exitDx=0;exitDy=0;exitPerimeter=0;" parent="gyXgDf-kMecvD-xgvL6y-1" source="fXizozWoqreXSzZDmgjI-18" target="fXizozWoqreXSzZDmgjI-14" edge="1">
                    <mxGeometry relative="1" as="geometry"/>
                </mxCell>
                <mxCell id="fXizozWoqreXSzZDmgjI-18" value="Xem danh sách đề thi" style="rounded=1;whiteSpace=wrap;html=1;" parent="gyXgDf-kMecvD-xgvL6y-1" vertex="1">
                    <mxGeometry x="283" y="185" width="120" height="60" as="geometry"/>
                </mxCell>
                <mxCell id="fXizozWoqreXSzZDmgjI-19" value="" style="edgeStyle=none;html=1;" parent="gyXgDf-kMecvD-xgvL6y-1" source="fXizozWoqreXSzZDmgjI-20" target="fXizozWoqreXSzZDmgjI-21" edge="1">
                    <mxGeometry relative="1" as="geometry"/>
                </mxCell>
                <mxCell id="fXizozWoqreXSzZDmgjI-20" value="Đặt tên cho đề thi" style="whiteSpace=wrap;html=1;rounded=1;arcSize=22;" parent="gyXgDf-kMecvD-xgvL6y-1" vertex="1">
                    <mxGeometry x="64" y="486.88" width="120" height="60" as="geometry"/>
                </mxCell>
                <mxCell id="fXizozWoqreXSzZDmgjI-21" value="Thêm câu hỏi vào đề thi (từ file, ngân hàng câu hỏi,...)" style="whiteSpace=wrap;html=1;rounded=1;arcSize=22;" parent="gyXgDf-kMecvD-xgvL6y-1" vertex="1">
                    <mxGeometry x="64" y="586.87" width="120" height="60" as="geometry"/>
                </mxCell>
                <mxCell id="fXizozWoqreXSzZDmgjI-22" value="" style="html=1;points=[];perimeter=orthogonalPerimeter;rotation=90;" parent="gyXgDf-kMecvD-xgvL6y-1" vertex="1">
                    <mxGeometry x="338.85" y="523.13" width="12.5" height="80" as="geometry"/>
                </mxCell>
                <mxCell id="fXizozWoqreXSzZDmgjI-23" value="Đổi nội dung câu hỏi" style="whiteSpace=wrap;html=1;rounded=1;arcSize=22;" parent="gyXgDf-kMecvD-xgvL6y-1" vertex="1">
                    <mxGeometry x="310" y="640" width="120" height="60" as="geometry"/>
                </mxCell>
                <mxCell id="fXizozWoqreXSzZDmgjI-24" value="Đổi các đáp án chọn" style="whiteSpace=wrap;html=1;rounded=1;arcSize=22;" parent="gyXgDf-kMecvD-xgvL6y-1" vertex="1">
                    <mxGeometry x="440" y="640" width="120" height="60" as="geometry"/>
                </mxCell>
                <mxCell id="fXizozWoqreXSzZDmgjI-25" value="" style="edgeStyle=none;html=1;endArrow=classic;endFill=1;" parent="gyXgDf-kMecvD-xgvL6y-1" source="fXizozWoqreXSzZDmgjI-26" target="fXizozWoqreXSzZDmgjI-22" edge="1">
                    <mxGeometry relative="1" as="geometry"/>
                </mxCell>
                <mxCell id="fXizozWoqreXSzZDmgjI-26" value="Chọn đề thi để sửa" style="rounded=1;whiteSpace=wrap;html=1;" parent="gyXgDf-kMecvD-xgvL6y-1" vertex="1">
                    <mxGeometry x="285.1" y="460.63" width="120" height="62.5" as="geometry"/>
                </mxCell>
                <mxCell id="fXizozWoqreXSzZDmgjI-27" value="Xác nhận" style="whiteSpace=wrap;html=1;rounded=1;arcSize=22;" parent="gyXgDf-kMecvD-xgvL6y-1" vertex="1">
                    <mxGeometry x="291.85000000000014" y="870" width="120" height="60" as="geometry"/>
                </mxCell>
                <mxCell id="fXizozWoqreXSzZDmgjI-28" value="" style="endArrow=classic;html=1;startArrow=none;exitX=0.5;exitY=1;exitDx=0;exitDy=0;endFill=1;entryX=0.847;entryY=0.987;entryDx=0;entryDy=0;entryPerimeter=0;" parent="gyXgDf-kMecvD-xgvL6y-1" source="fXizozWoqreXSzZDmgjI-21" target="fXizozWoqreXSzZDmgjI-30" edge="1">
                    <mxGeometry width="50" height="50" relative="1" as="geometry">
                        <mxPoint x="43.99999999999977" y="756.4999999999999" as="sourcePoint"/>
                        <mxPoint x="4" y="729.63" as="targetPoint"/>
                        <Array as="points">
                            <mxPoint x="124" y="784"/>
                        </Array>
                    </mxGeometry>
                </mxCell>
                <mxCell id="fXizozWoqreXSzZDmgjI-29" value="" style="edgeStyle=none;html=1;endArrow=classic;endFill=1;" parent="gyXgDf-kMecvD-xgvL6y-1" source="fXizozWoqreXSzZDmgjI-30" target="fXizozWoqreXSzZDmgjI-27" edge="1">
                    <mxGeometry relative="1" as="geometry"/>
                </mxCell>
                <mxCell id="fXizozWoqreXSzZDmgjI-30" value="" style="html=1;points=[];perimeter=orthogonalPerimeter;rotation=90;" parent="gyXgDf-kMecvD-xgvL6y-1" vertex="1">
                    <mxGeometry x="345.6" y="740" width="12.5" height="80" as="geometry"/>
                </mxCell>
                <mxCell id="fXizozWoqreXSzZDmgjI-31" value="" style="endArrow=classic;html=1;startArrow=none;exitX=0.5;exitY=1;exitDx=0;exitDy=0;endFill=1;entryX=0.059;entryY=0.509;entryDx=0;entryDy=0;entryPerimeter=0;" parent="gyXgDf-kMecvD-xgvL6y-1" source="fXizozWoqreXSzZDmgjI-23" target="fXizozWoqreXSzZDmgjI-30" edge="1">
                    <mxGeometry width="50" height="50" relative="1" as="geometry">
                        <mxPoint x="45.099999999999795" y="656.8699999999999" as="sourcePoint"/>
                        <mxPoint x="307.01999999999987" y="910" as="targetPoint"/>
                        <Array as="points"/>
                    </mxGeometry>
                </mxCell>
                <mxCell id="fXizozWoqreXSzZDmgjI-32" value="" style="endArrow=classic;html=1;startArrow=none;exitX=0.5;exitY=1;exitDx=0;exitDy=0;endFill=1;entryX=0.066;entryY=0.514;entryDx=0;entryDy=0;entryPerimeter=0;" parent="gyXgDf-kMecvD-xgvL6y-1" source="fXizozWoqreXSzZDmgjI-24" target="fXizozWoqreXSzZDmgjI-30" edge="1">
                    <mxGeometry width="50" height="50" relative="1" as="geometry">
                        <mxPoint x="275.0999999999998" y="673.1300000000001" as="sourcePoint"/>
                        <mxPoint x="361.12999999999977" y="784.4874999999997" as="targetPoint"/>
                        <Array as="points"/>
                    </mxGeometry>
                </mxCell>
                <mxCell id="fXizozWoqreXSzZDmgjI-33" value="" style="endArrow=classic;html=1;exitX=1.03;exitY=0.498;exitDx=0;exitDy=0;exitPerimeter=0;entryX=0.5;entryY=0;entryDx=0;entryDy=0;" parent="gyXgDf-kMecvD-xgvL6y-1" source="fXizozWoqreXSzZDmgjI-22" target="fXizozWoqreXSzZDmgjI-23" edge="1">
                    <mxGeometry width="50" height="50" relative="1" as="geometry">
                        <mxPoint x="145.10000000000002" y="580" as="sourcePoint"/>
                        <mxPoint x="195.10000000000002" y="530" as="targetPoint"/>
                    </mxGeometry>
                </mxCell>
                <mxCell id="fXizozWoqreXSzZDmgjI-34" value="" style="endArrow=classic;html=1;startArrow=none;exitX=0.999;exitY=0.016;exitDx=0;exitDy=0;endFill=1;entryX=0.5;entryY=0;entryDx=0;entryDy=0;exitPerimeter=0;" parent="gyXgDf-kMecvD-xgvL6y-1" source="fXizozWoqreXSzZDmgjI-22" target="fXizozWoqreXSzZDmgjI-24" edge="1">
                    <mxGeometry width="50" height="50" relative="1" as="geometry">
                        <mxPoint x="285.0999999999998" y="683.1300000000001" as="sourcePoint"/>
                        <mxPoint x="371.12999999999977" y="794.4874999999997" as="targetPoint"/>
                        <Array as="points"/>
                    </mxGeometry>
                </mxCell>
                <mxCell id="fXizozWoqreXSzZDmgjI-35" value="Chọn câu hỏi để xóa" style="rounded=1;whiteSpace=wrap;html=1;" parent="gyXgDf-kMecvD-xgvL6y-1" vertex="1">
                    <mxGeometry x="504" y="460.63" width="120" height="62.5" as="geometry"/>
                </mxCell>
                <mxCell id="fXizozWoqreXSzZDmgjI-36" value="" style="endArrow=classic;html=1;startArrow=none;exitX=0.5;exitY=1;exitDx=0;exitDy=0;endFill=1;entryX=0.68;entryY=0.006;entryDx=0;entryDy=0;entryPerimeter=0;" parent="gyXgDf-kMecvD-xgvL6y-1" source="fXizozWoqreXSzZDmgjI-35" target="fXizozWoqreXSzZDmgjI-30" edge="1">
                    <mxGeometry width="50" height="50" relative="1" as="geometry">
                        <mxPoint x="63.99999999999977" y="656.8699999999999" as="sourcePoint"/>
                        <mxPoint x="320.75" y="910" as="targetPoint"/>
                        <Array as="points">
                            <mxPoint x="564" y="780"/>
                        </Array>
                    </mxGeometry>
                </mxCell>
                <mxCell id="fXizozWoqreXSzZDmgjI-37" value="" style="endArrow=none;html=1;startArrow=none;exitX=0.5;exitY=1;exitDx=0;exitDy=0;endFill=0;" parent="gyXgDf-kMecvD-xgvL6y-1" source="fXizozWoqreXSzZDmgjI-27" edge="1">
                    <mxGeometry width="50" height="50" relative="1" as="geometry">
                        <mxPoint x="257.25" y="670.0000000000001" as="sourcePoint"/>
                        <mxPoint x="84" y="980" as="targetPoint"/>
                        <Array as="points">
                            <mxPoint x="352" y="980"/>
                        </Array>
                    </mxGeometry>
                </mxCell>
                <mxCell id="fXizozWoqreXSzZDmgjI-38" value="" style="endArrow=none;html=1;startArrow=none;endFill=0;" parent="gyXgDf-kMecvD-xgvL6y-1" edge="1">
                    <mxGeometry width="50" height="50" relative="1" as="geometry">
                        <mxPoint x="84" y="980" as="sourcePoint"/>
                        <mxPoint x="14" y="250" as="targetPoint"/>
                        <Array as="points">
                            <mxPoint x="14" y="980"/>
                        </Array>
                    </mxGeometry>
                </mxCell>
                <mxCell id="fXizozWoqreXSzZDmgjI-39" value="" style="endArrow=classic;html=1;entryX=0;entryY=0.5;entryDx=0;entryDy=0;" parent="gyXgDf-kMecvD-xgvL6y-1" target="fXizozWoqreXSzZDmgjI-18" edge="1">
                    <mxGeometry width="50" height="50" relative="1" as="geometry">
                        <mxPoint x="14" y="250" as="sourcePoint"/>
                        <mxPoint x="104" y="150" as="targetPoint"/>
                        <Array as="points">
                            <mxPoint x="14" y="215"/>
                        </Array>
                    </mxGeometry>
                </mxCell>
                <mxCell id="fXizozWoqreXSzZDmgjI-40" style="edgeStyle=none;html=1;entryX=0.5;entryY=0;entryDx=0;entryDy=0;exitX=0.035;exitY=0.006;exitDx=0;exitDy=0;exitPerimeter=0;" parent="gyXgDf-kMecvD-xgvL6y-1" source="fXizozWoqreXSzZDmgjI-14" target="fXizozWoqreXSzZDmgjI-16" edge="1">
                    <mxGeometry relative="1" as="geometry">
                        <Array as="points">
                            <mxPoint x="710" y="297"/>
                        </Array>
                        <mxPoint x="384.00499999999965" y="304.1129400000002" as="sourcePoint"/>
                        <mxPoint x="566.29" y="365" as="targetPoint"/>
                    </mxGeometry>
                </mxCell>
                <mxCell id="fXizozWoqreXSzZDmgjI-41" value="Đổi tên câu hỏi" style="whiteSpace=wrap;html=1;rounded=1;arcSize=22;" parent="gyXgDf-kMecvD-xgvL6y-1" vertex="1">
                    <mxGeometry x="180" y="640" width="120" height="60" as="geometry"/>
                </mxCell>
                <mxCell id="fXizozWoqreXSzZDmgjI-42" value="" style="endArrow=classic;html=1;exitX=1.075;exitY=0.989;exitDx=0;exitDy=0;exitPerimeter=0;entryX=0.5;entryY=0;entryDx=0;entryDy=0;" parent="gyXgDf-kMecvD-xgvL6y-1" source="fXizozWoqreXSzZDmgjI-22" target="fXizozWoqreXSzZDmgjI-41" edge="1">
                    <mxGeometry width="50" height="50" relative="1" as="geometry">
                        <mxPoint x="355.26" y="579.755" as="sourcePoint"/>
                        <mxPoint x="380" y="650" as="targetPoint"/>
                    </mxGeometry>
                </mxCell>
                <mxCell id="fXizozWoqreXSzZDmgjI-43" value="" style="endArrow=classic;html=1;startArrow=none;exitX=0.5;exitY=1;exitDx=0;exitDy=0;endFill=1;entryX=0.08;entryY=0.509;entryDx=0;entryDy=0;entryPerimeter=0;" parent="gyXgDf-kMecvD-xgvL6y-1" source="fXizozWoqreXSzZDmgjI-41" target="fXizozWoqreXSzZDmgjI-30" edge="1">
                    <mxGeometry width="50" height="50" relative="1" as="geometry">
                        <mxPoint x="380" y="710" as="sourcePoint"/>
                        <mxPoint x="350" y="770" as="targetPoint"/>
                        <Array as="points"/>
                    </mxGeometry>
                </mxCell>
            </root>
        </mxGraphModel>
    </diagram>
    <diagram id="6-QM8YS3YK2tfEXrzICW" name="Quản lý thẻ">
        <mxGraphModel dx="1115" dy="595" grid="1" gridSize="10" guides="1" tooltips="1" connect="1" arrows="1" fold="1" page="1" pageScale="1" pageWidth="827" pageHeight="1169" math="0" shadow="0">
            <root>
                <mxCell id="0"/>
                <mxCell id="1" parent="0"/>
                <mxCell id="S6qyHeAd3J7paqIlhmgz-1" value="" style="ellipse;html=1;shape=endState;fillColor=#000000;strokeColor=#ff0000;" vertex="1" parent="1">
                    <mxGeometry x="695" y="456.88" width="30" height="30" as="geometry"/>
                </mxCell>
                <mxCell id="S6qyHeAd3J7paqIlhmgz-2" value="" style="ellipse;html=1;shape=startState;fillColor=#000000;strokeColor=#ff0000;" vertex="1" parent="1">
                    <mxGeometry x="328.9" y="20" width="30" height="30" as="geometry"/>
                </mxCell>
                <mxCell id="S6qyHeAd3J7paqIlhmgz-3" value="" style="edgeStyle=orthogonalEdgeStyle;html=1;verticalAlign=bottom;endArrow=open;endSize=8;strokeColor=#ff0000;entryX=0.5;entryY=0;entryDx=0;entryDy=0;" edge="1" parent="1" source="S6qyHeAd3J7paqIlhmgz-2" target="S6qyHeAd3J7paqIlhmgz-5">
                    <mxGeometry relative="1" as="geometry">
                        <mxPoint x="93" y="260" as="targetPoint"/>
                    </mxGeometry>
                </mxCell>
                <mxCell id="S6qyHeAd3J7paqIlhmgz-4" style="edgeStyle=none;html=1;exitX=0.5;exitY=1;exitDx=0;exitDy=0;entryX=0.5;entryY=0;entryDx=0;entryDy=0;" edge="1" parent="1" source="S6qyHeAd3J7paqIlhmgz-5" target="S6qyHeAd3J7paqIlhmgz-19">
                    <mxGeometry relative="1" as="geometry"/>
                </mxCell>
                <mxCell id="S6qyHeAd3J7paqIlhmgz-5" value="Đăng nhập" style="rounded=1;whiteSpace=wrap;html=1;" vertex="1" parent="1">
                    <mxGeometry x="282.99" y="90" width="120" height="60" as="geometry"/>
                </mxCell>
                <mxCell id="S6qyHeAd3J7paqIlhmgz-6" value="" style="edgeStyle=none;html=1;" edge="1" parent="1" source="S6qyHeAd3J7paqIlhmgz-7" target="S6qyHeAd3J7paqIlhmgz-21">
                    <mxGeometry relative="1" as="geometry"/>
                </mxCell>
                <mxCell id="S6qyHeAd3J7paqIlhmgz-7" value="Tạo thẻ" style="rounded=1;whiteSpace=wrap;html=1;arcSize=22;" vertex="1" parent="1">
                    <mxGeometry x="64" y="387.5" width="120" height="62.5" as="geometry"/>
                </mxCell>
                <mxCell id="S6qyHeAd3J7paqIlhmgz-8" value="" style="edgeStyle=none;html=1;" edge="1" parent="1" source="S6qyHeAd3J7paqIlhmgz-9" target="S6qyHeAd3J7paqIlhmgz-27">
                    <mxGeometry relative="1" as="geometry"/>
                </mxCell>
                <mxCell id="S6qyHeAd3J7paqIlhmgz-9" value="Sửa thẻ" style="rounded=1;whiteSpace=wrap;html=1;" vertex="1" parent="1">
                    <mxGeometry x="285.1" y="350" width="120" height="62.5" as="geometry"/>
                </mxCell>
                <mxCell id="S6qyHeAd3J7paqIlhmgz-10" value="" style="edgeStyle=none;html=1;endArrow=classic;endFill=1;" edge="1" parent="1" source="S6qyHeAd3J7paqIlhmgz-11" target="S6qyHeAd3J7paqIlhmgz-36">
                    <mxGeometry relative="1" as="geometry"/>
                </mxCell>
                <mxCell id="S6qyHeAd3J7paqIlhmgz-11" value="Xóa thẻ" style="rounded=1;whiteSpace=wrap;html=1;" vertex="1" parent="1">
                    <mxGeometry x="504" y="365" width="120" height="62.5" as="geometry"/>
                </mxCell>
                <mxCell id="S6qyHeAd3J7paqIlhmgz-12" style="edgeStyle=none;html=1;exitX=0.502;exitY=-0.004;exitDx=0;exitDy=0;exitPerimeter=0;entryX=0.5;entryY=0;entryDx=0;entryDy=0;" edge="1" parent="1" source="S6qyHeAd3J7paqIlhmgz-15" target="S6qyHeAd3J7paqIlhmgz-11">
                    <mxGeometry relative="1" as="geometry">
                        <Array as="points">
                            <mxPoint x="560" y="304"/>
                        </Array>
                        <mxPoint x="560" y="360" as="targetPoint"/>
                    </mxGeometry>
                </mxCell>
                <mxCell id="S6qyHeAd3J7paqIlhmgz-13" style="edgeStyle=none;html=1;entryX=0.5;entryY=0;entryDx=0;entryDy=0;exitX=0.474;exitY=0.999;exitDx=0;exitDy=0;exitPerimeter=0;" edge="1" parent="1" source="S6qyHeAd3J7paqIlhmgz-15" target="S6qyHeAd3J7paqIlhmgz-7">
                    <mxGeometry relative="1" as="geometry">
                        <Array as="points">
                            <mxPoint x="124" y="300"/>
                        </Array>
                    </mxGeometry>
                </mxCell>
                <mxCell id="S6qyHeAd3J7paqIlhmgz-14" style="edgeStyle=none;rounded=1;html=1;entryX=0.5;entryY=0;entryDx=0;entryDy=0;endArrow=classic;endFill=1;" edge="1" parent="1" source="S6qyHeAd3J7paqIlhmgz-15" target="S6qyHeAd3J7paqIlhmgz-9">
                    <mxGeometry relative="1" as="geometry"/>
                </mxCell>
                <mxCell id="S6qyHeAd3J7paqIlhmgz-15" value="" style="html=1;points=[];perimeter=orthogonalPerimeter;rotation=90;" vertex="1" parent="1">
                    <mxGeometry x="335.8399999999999" y="257.33" width="14.31" height="80" as="geometry"/>
                </mxCell>
                <mxCell id="S6qyHeAd3J7paqIlhmgz-16" value="" style="edgeStyle=none;html=1;" edge="1" parent="1" source="S6qyHeAd3J7paqIlhmgz-17" target="S6qyHeAd3J7paqIlhmgz-1">
                    <mxGeometry relative="1" as="geometry"/>
                </mxCell>
                <mxCell id="S6qyHeAd3J7paqIlhmgz-17" value="Đăng xuất" style="rounded=1;whiteSpace=wrap;html=1;" vertex="1" parent="1">
                    <mxGeometry x="650" y="370" width="120" height="60" as="geometry"/>
                </mxCell>
                <mxCell id="S6qyHeAd3J7paqIlhmgz-18" value="" style="edgeStyle=none;html=1;exitX=0.508;exitY=1.005;exitDx=0;exitDy=0;exitPerimeter=0;" edge="1" parent="1" source="S6qyHeAd3J7paqIlhmgz-19" target="S6qyHeAd3J7paqIlhmgz-15">
                    <mxGeometry relative="1" as="geometry"/>
                </mxCell>
                <mxCell id="S6qyHeAd3J7paqIlhmgz-19" value="Xem danh sách các thẻ" style="rounded=1;whiteSpace=wrap;html=1;" vertex="1" parent="1">
                    <mxGeometry x="283" y="185" width="120" height="60" as="geometry"/>
                </mxCell>
                <mxCell id="S6qyHeAd3J7paqIlhmgz-20" value="" style="edgeStyle=none;html=1;" edge="1" parent="1" source="S6qyHeAd3J7paqIlhmgz-21" target="S6qyHeAd3J7paqIlhmgz-22">
                    <mxGeometry relative="1" as="geometry"/>
                </mxCell>
                <mxCell id="S6qyHeAd3J7paqIlhmgz-21" value="Đặt tên thẻ" style="whiteSpace=wrap;html=1;rounded=1;arcSize=22;" vertex="1" parent="1">
                    <mxGeometry x="64" y="486.88" width="120" height="60" as="geometry"/>
                </mxCell>
                <mxCell id="S6qyHeAd3J7paqIlhmgz-22" value="Mô tả thẻ" style="whiteSpace=wrap;html=1;rounded=1;arcSize=22;" vertex="1" parent="1">
                    <mxGeometry x="64" y="586.87" width="120" height="60" as="geometry"/>
                </mxCell>
                <mxCell id="S6qyHeAd3J7paqIlhmgz-23" value="" style="html=1;points=[];perimeter=orthogonalPerimeter;rotation=90;" vertex="1" parent="1">
                    <mxGeometry x="338.85" y="523.13" width="12.5" height="80" as="geometry"/>
                </mxCell>
                <mxCell id="S6qyHeAd3J7paqIlhmgz-24" value="Đổi tên thẻ" style="whiteSpace=wrap;html=1;rounded=1;arcSize=22;" vertex="1" parent="1">
                    <mxGeometry x="190" y="640" width="120" height="60" as="geometry"/>
                </mxCell>
                <mxCell id="S6qyHeAd3J7paqIlhmgz-25" value="Đổi mô tả thẻ" style="whiteSpace=wrap;html=1;rounded=1;arcSize=22;" vertex="1" parent="1">
                    <mxGeometry x="395.1" y="640" width="120" height="60" as="geometry"/>
                </mxCell>
                <mxCell id="S6qyHeAd3J7paqIlhmgz-26" value="" style="edgeStyle=none;html=1;endArrow=classic;endFill=1;" edge="1" parent="1" source="S6qyHeAd3J7paqIlhmgz-27" target="S6qyHeAd3J7paqIlhmgz-23">
                    <mxGeometry relative="1" as="geometry"/>
                </mxCell>
                <mxCell id="S6qyHeAd3J7paqIlhmgz-27" value="Chọn thẻ để sửa" style="rounded=1;whiteSpace=wrap;html=1;" vertex="1" parent="1">
                    <mxGeometry x="285.1" y="460.63" width="120" height="62.5" as="geometry"/>
                </mxCell>
                <mxCell id="S6qyHeAd3J7paqIlhmgz-28" value="Xác nhận" style="whiteSpace=wrap;html=1;rounded=1;arcSize=22;" vertex="1" parent="1">
                    <mxGeometry x="291.85000000000014" y="870" width="120" height="60" as="geometry"/>
                </mxCell>
                <mxCell id="S6qyHeAd3J7paqIlhmgz-29" value="" style="endArrow=classic;html=1;startArrow=none;exitX=0.5;exitY=1;exitDx=0;exitDy=0;endFill=1;entryX=0.847;entryY=0.987;entryDx=0;entryDy=0;entryPerimeter=0;" edge="1" parent="1" source="S6qyHeAd3J7paqIlhmgz-22" target="S6qyHeAd3J7paqIlhmgz-31">
                    <mxGeometry width="50" height="50" relative="1" as="geometry">
                        <mxPoint x="43.99999999999977" y="756.4999999999999" as="sourcePoint"/>
                        <mxPoint x="4" y="729.63" as="targetPoint"/>
                        <Array as="points">
                            <mxPoint x="124" y="784"/>
                        </Array>
                    </mxGeometry>
                </mxCell>
                <mxCell id="S6qyHeAd3J7paqIlhmgz-30" value="" style="edgeStyle=none;html=1;endArrow=classic;endFill=1;" edge="1" parent="1" source="S6qyHeAd3J7paqIlhmgz-31" target="S6qyHeAd3J7paqIlhmgz-28">
                    <mxGeometry relative="1" as="geometry"/>
                </mxCell>
                <mxCell id="S6qyHeAd3J7paqIlhmgz-31" value="" style="html=1;points=[];perimeter=orthogonalPerimeter;rotation=90;" vertex="1" parent="1">
                    <mxGeometry x="345.6" y="740" width="12.5" height="80" as="geometry"/>
                </mxCell>
                <mxCell id="S6qyHeAd3J7paqIlhmgz-32" value="" style="endArrow=classic;html=1;startArrow=none;exitX=0.5;exitY=1;exitDx=0;exitDy=0;endFill=1;entryX=0.059;entryY=0.509;entryDx=0;entryDy=0;entryPerimeter=0;" edge="1" parent="1" source="S6qyHeAd3J7paqIlhmgz-24" target="S6qyHeAd3J7paqIlhmgz-31">
                    <mxGeometry width="50" height="50" relative="1" as="geometry">
                        <mxPoint x="45.099999999999795" y="656.8699999999999" as="sourcePoint"/>
                        <mxPoint x="307.01999999999987" y="910" as="targetPoint"/>
                        <Array as="points"/>
                    </mxGeometry>
                </mxCell>
                <mxCell id="S6qyHeAd3J7paqIlhmgz-33" value="" style="endArrow=classic;html=1;startArrow=none;exitX=0.5;exitY=1;exitDx=0;exitDy=0;endFill=1;entryX=0.066;entryY=0.514;entryDx=0;entryDy=0;entryPerimeter=0;" edge="1" parent="1" source="S6qyHeAd3J7paqIlhmgz-25" target="S6qyHeAd3J7paqIlhmgz-31">
                    <mxGeometry width="50" height="50" relative="1" as="geometry">
                        <mxPoint x="275.0999999999998" y="673.1300000000001" as="sourcePoint"/>
                        <mxPoint x="361.12999999999977" y="784.4874999999997" as="targetPoint"/>
                        <Array as="points"/>
                    </mxGeometry>
                </mxCell>
                <mxCell id="S6qyHeAd3J7paqIlhmgz-34" value="" style="endArrow=classic;html=1;exitX=0.926;exitY=0.992;exitDx=0;exitDy=0;exitPerimeter=0;entryX=0.5;entryY=0;entryDx=0;entryDy=0;" edge="1" parent="1" source="S6qyHeAd3J7paqIlhmgz-23" target="S6qyHeAd3J7paqIlhmgz-24">
                    <mxGeometry width="50" height="50" relative="1" as="geometry">
                        <mxPoint x="145.10000000000002" y="580" as="sourcePoint"/>
                        <mxPoint x="195.10000000000002" y="530" as="targetPoint"/>
                    </mxGeometry>
                </mxCell>
                <mxCell id="S6qyHeAd3J7paqIlhmgz-35" value="" style="endArrow=classic;html=1;startArrow=none;exitX=0.999;exitY=0.016;exitDx=0;exitDy=0;endFill=1;entryX=0.5;entryY=0;entryDx=0;entryDy=0;exitPerimeter=0;" edge="1" parent="1" source="S6qyHeAd3J7paqIlhmgz-23" target="S6qyHeAd3J7paqIlhmgz-25">
                    <mxGeometry width="50" height="50" relative="1" as="geometry">
                        <mxPoint x="285.0999999999998" y="683.1300000000001" as="sourcePoint"/>
                        <mxPoint x="371.12999999999977" y="794.4874999999997" as="targetPoint"/>
                        <Array as="points"/>
                    </mxGeometry>
                </mxCell>
                <mxCell id="S6qyHeAd3J7paqIlhmgz-36" value="Chọn thẻ để xóa" style="rounded=1;whiteSpace=wrap;html=1;" vertex="1" parent="1">
                    <mxGeometry x="504" y="460.63" width="120" height="62.5" as="geometry"/>
                </mxCell>
                <mxCell id="S6qyHeAd3J7paqIlhmgz-37" value="" style="endArrow=classic;html=1;startArrow=none;exitX=0.5;exitY=1;exitDx=0;exitDy=0;endFill=1;entryX=0.68;entryY=0.006;entryDx=0;entryDy=0;entryPerimeter=0;" edge="1" parent="1" source="S6qyHeAd3J7paqIlhmgz-36" target="S6qyHeAd3J7paqIlhmgz-31">
                    <mxGeometry width="50" height="50" relative="1" as="geometry">
                        <mxPoint x="63.99999999999977" y="656.8699999999999" as="sourcePoint"/>
                        <mxPoint x="320.75" y="910" as="targetPoint"/>
                        <Array as="points">
                            <mxPoint x="564" y="780"/>
                        </Array>
                    </mxGeometry>
                </mxCell>
                <mxCell id="S6qyHeAd3J7paqIlhmgz-38" value="" style="endArrow=none;html=1;startArrow=none;exitX=0.5;exitY=1;exitDx=0;exitDy=0;endFill=0;" edge="1" parent="1" source="S6qyHeAd3J7paqIlhmgz-28">
                    <mxGeometry width="50" height="50" relative="1" as="geometry">
                        <mxPoint x="257.25" y="670.0000000000001" as="sourcePoint"/>
                        <mxPoint x="84" y="980" as="targetPoint"/>
                        <Array as="points">
                            <mxPoint x="352" y="980"/>
                        </Array>
                    </mxGeometry>
                </mxCell>
                <mxCell id="S6qyHeAd3J7paqIlhmgz-39" value="" style="endArrow=none;html=1;startArrow=none;endFill=0;" edge="1" parent="1">
                    <mxGeometry width="50" height="50" relative="1" as="geometry">
                        <mxPoint x="84" y="980" as="sourcePoint"/>
                        <mxPoint x="14" y="250" as="targetPoint"/>
                        <Array as="points">
                            <mxPoint x="14" y="980"/>
                        </Array>
                    </mxGeometry>
                </mxCell>
                <mxCell id="S6qyHeAd3J7paqIlhmgz-40" value="" style="endArrow=classic;html=1;entryX=0;entryY=0.5;entryDx=0;entryDy=0;" edge="1" parent="1" target="S6qyHeAd3J7paqIlhmgz-19">
                    <mxGeometry width="50" height="50" relative="1" as="geometry">
                        <mxPoint x="14" y="250" as="sourcePoint"/>
                        <mxPoint x="104" y="150" as="targetPoint"/>
                        <Array as="points">
                            <mxPoint x="14" y="215"/>
                        </Array>
                    </mxGeometry>
                </mxCell>
                <mxCell id="S6qyHeAd3J7paqIlhmgz-41" style="edgeStyle=none;html=1;entryX=0.5;entryY=0;entryDx=0;entryDy=0;exitX=0.035;exitY=0.006;exitDx=0;exitDy=0;exitPerimeter=0;" edge="1" parent="1" source="S6qyHeAd3J7paqIlhmgz-15" target="S6qyHeAd3J7paqIlhmgz-17">
                    <mxGeometry relative="1" as="geometry">
                        <Array as="points">
                            <mxPoint x="710" y="297"/>
                        </Array>
                        <mxPoint x="384.00499999999965" y="304.1129400000002" as="sourcePoint"/>
                        <mxPoint x="566.29" y="365" as="targetPoint"/>
                    </mxGeometry>
                </mxCell>
            </root>
        </mxGraphModel>
    </diagram>
</mxfile>